<svg version="1.1" id="Layer_1" xmlns="http://www.w3.org/2000/svg" xmlns:xlink="http://www.w3.org/1999/xlink" x="0px" y="0px"
	 width="100%" viewBox="0 0 225 225" enable-background="new 0 0 225 225" xml:space="preserve">
<path fill="#FEFFFE" opacity="1.000000" stroke="none" 
	d="
M150.000000,226.000000 
	C100.000000,226.000000 50.500008,226.000000 1.000007,226.000000 
	C1.000004,151.000000 1.000004,76.000015 1.000002,1.000017 
	C75.999992,1.000011 150.999985,1.000011 225.999969,1.000006 
	C225.999985,75.999985 225.999985,150.999969 226.000000,225.999969 
	C200.833328,226.000000 175.666672,226.000000 150.000000,226.000000 
M164.908875,139.113190 
	C172.234222,139.127716 179.559723,139.177078 186.884903,139.148254 
	C196.887466,139.108902 202.530334,133.932022 202.592255,123.904472 
	C202.764969,95.935120 202.767166,67.963242 202.589203,39.993938 
	C202.524979,29.899162 197.120987,24.456343 187.063828,24.412842 
	C151.269073,24.258018 115.472641,24.243193 79.678200,24.432533 
	C69.485481,24.486450 64.281464,30.326578 64.181053,40.604897 
	C64.104645,48.426861 64.072639,56.249264 63.087135,64.190758 
	C55.265415,64.199570 47.442230,64.117592 39.622402,64.243614 
	C32.294727,64.361710 27.985916,67.327972 25.298222,73.829918 
	C25.195272,74.554474 25.092323,75.279022 24.691206,76.901611 
	C24.646557,118.793037 24.599279,160.684464 24.576763,202.575912 
	C24.576328,203.385193 24.867550,204.194626 24.974390,205.508881 
	C25.055546,205.657211 25.136703,205.805527 25.389221,206.634354 
	C29.548323,211.069077 32.803886,211.453262 36.758499,207.426224 
	C45.938572,198.078064 54.944725,188.559113 64.953514,179.038223 
	C68.619873,179.034988 72.286263,179.038559 75.952599,179.027420 
	C100.944176,178.951538 125.935745,178.872574 151.642273,178.810638 
	C159.686539,175.888763 162.661057,171.754959 162.784531,163.313522 
	C162.902740,155.232422 163.015778,147.151260 163.566223,139.058685 
	C163.566223,139.058685 163.983734,138.935471 164.908875,139.113190 
z"/>
<path fill="#34A853" opacity="1.000000" stroke="none" 
	d="
M25.022696,205.003998 
	C24.867550,204.194626 24.576328,203.385193 24.576763,202.575912 
	C24.599279,160.684464 24.646557,118.793037 25.120075,76.213211 
	C25.659929,74.804474 25.770914,74.084152 25.881897,73.363823 
	C27.985916,67.327972 32.294727,64.361710 39.622402,64.243614 
	C47.442230,64.117592 55.265415,64.199570 63.574306,64.291962 
	C64.061478,64.393166 64.188820,64.691360 64.129120,65.093002 
	C64.052795,84.947197 63.991829,104.399872 64.039841,123.852272 
	C64.061089,132.462555 69.577789,138.937256 77.293686,138.957458 
	C105.721649,139.031876 134.150162,138.897583 162.710388,138.913910 
	C162.842331,138.986038 163.131073,139.070114 163.131073,139.070114 
	C163.015778,147.151260 162.902740,155.232422 162.784531,163.313522 
	C162.661057,171.754959 159.686539,175.888763 150.967773,178.545746 
	C149.806854,178.190903 149.320480,178.022522 148.834000,178.022232 
	C121.761391,178.006073 94.688759,177.989792 67.616280,178.047470 
	C66.417236,178.050018 65.219643,178.739746 64.021378,179.109375 
	C54.944725,188.559113 45.938572,198.078064 36.758499,207.426224 
	C32.803886,211.453262 29.548323,211.069077 25.437822,206.183151 
	C25.331848,205.489304 25.177271,205.246643 25.022696,205.003998 
z"/>
<path fill="#5BB974" opacity="1.000000" stroke="none" 
	d="
M64.041183,64.232315 
	C64.072639,56.249264 64.104645,48.426861 64.181053,40.604897 
	C64.281464,30.326578 69.485481,24.486450 79.678200,24.432533 
	C115.472641,24.243193 151.269073,24.258018 187.063828,24.412842 
	C197.120987,24.456343 202.524979,29.899162 202.589203,39.993938 
	C202.767166,67.963242 202.764969,95.935120 202.592255,123.904472 
	C202.530334,133.932022 196.887466,139.108902 186.884903,139.148254 
	C179.559723,139.177078 172.234222,139.127716 164.341522,138.816803 
	C163.579285,138.264709 163.328018,138.090088 162.986435,137.529190 
	C162.944946,118.615570 162.941345,100.169350 162.928482,81.723122 
	C162.919983,69.530357 157.494308,64.076782 145.346939,64.072662 
	C120.253334,64.064148 95.159714,64.056252 70.066177,64.096916 
	C68.106735,64.100090 66.147926,64.484261 64.188820,64.691360 
	C64.188820,64.691360 64.061478,64.393166 64.041183,64.232315 
z"/>
<path fill="#16A141" opacity="1.000000" stroke="none" 
	d="
M64.487442,179.073792 
	C65.219643,178.739746 66.417236,178.050018 67.616280,178.047470 
	C94.688759,177.989792 121.761391,178.006073 148.834000,178.022232 
	C149.320480,178.022522 149.806854,178.190903 150.610306,178.537720 
	C125.935745,178.872574 100.944176,178.951538 75.952599,179.027420 
	C72.286263,179.038559 68.619873,179.034988 64.487442,179.073792 
z"/>
<path fill="#27A54A" opacity="1.000000" stroke="none" 
	d="
M25.590061,73.596870 
	C25.770914,74.084152 25.659929,74.804474 25.269161,75.764191 
	C25.092323,75.279022 25.195272,74.554474 25.590061,73.596870 
z"/>
<path fill="#4EB56A" opacity="1.000000" stroke="none" 
	d="
M163.020370,137.996582 
	C163.328018,138.090088 163.579285,138.264709 163.878967,138.727951 
	C163.983734,138.935471 163.566223,139.058685 163.348648,139.064392 
	C163.131073,139.070114 162.842331,138.986038 162.849335,138.716980 
	C162.856339,138.447937 163.020370,137.996582 163.020370,137.996582 
z"/>
<path fill="#27A54A" opacity="1.000000" stroke="none" 
	d="
M24.998543,205.256439 
	C25.177271,205.246643 25.331848,205.489304 25.352142,205.842896 
	C25.136703,205.805527 25.055546,205.657211 24.998543,205.256439 
z"/>
<path fill="#198038" opacity="1.000000" stroke="none" 
	d="
M162.986435,137.529190 
	C163.020370,137.996582 162.856339,138.447937 162.717407,138.644867 
	C134.150162,138.897583 105.721649,139.031876 77.293686,138.957458 
	C69.577789,138.937256 64.061089,132.462555 64.039841,123.852272 
	C63.991829,104.399872 64.052795,84.947197 64.129120,65.093002 
	C66.147926,64.484261 68.106735,64.100090 70.066177,64.096916 
	C95.159714,64.056252 120.253334,64.064148 145.346939,64.072662 
	C157.494308,64.076782 162.919983,69.530357 162.928482,81.723122 
	C162.941345,100.169350 162.944946,118.615570 162.986435,137.529190 
z"/>
</svg>